    <svg
        id="Layer_2"
        data-name="Layer 2"
        xmlns="http://www.w3.org/2000/svg"
        viewBox="0 0 479.72 729.17"
    >
        <g id="BONES-PSYCHOPOMP-SVG">
            <g>
                <g id="Xylophone">
                    <path
                        class="cls_2"
                        d="M473.16,400.61c-1.5-3.26-5.17-1.03-8.02-.9-3.76.17-7.83-.63-11.14-.54-4.54.12-16.12,3.65-20,1.63-.68-.35-1.1-1.5-2-1.78-2.87-.88-4.31,1.77-4.05,4.35-5.07.53-10.33,2.53-15.38,2.98-5.7.51-11.5,1.13-17.16,1.58-6.24.49-13.26-.64-19.43.06-6.98.79-8.26,6.5-17.14,5.01-1.31-.22-11.87-3.33-12.37-3.74-.52-.42-1.12-3.21-2.07-4.3-1.06-1.23-3.57-2.18-4.6-3.26-2.31-2.42-5.05-7.95-7.41-10.96-6.64-8.48-14.37-17.2-20.57-25.9-1.53-2.14-2.81-5.62-4.48-7.88h5.99c.33,1.28-1.36.31-1.53,1.2-1.36,7.1,3.21,4.7,4.89,7.06.9,1.26,1.7,6.43,1.95,6.67.18.17,4.28.73,4.82.73.59,0,4.64-1.28,4.78-1.48,1.16-1.64-1.64-5.9-1.48-7.73.03-.33,3.01-1.68,3.58-1.8,3.57-.73,6.61,1.6,10.25,1.32,3.43-.27,8.21-2.99,11.49-3.59,1.56-.29,4.25.97,7.17.46,2.19-.38,4.87-2.5,6.26-2.65.32-.03,4.59.42,4.77.57.36.3-.45,4.42.08,5.16,1.24,1.72,11.89-1.15,14.53-1.31,5.92-.35,11.34.12,17.82-1.02,2.7-.47,4.97-2.8,8.03-2.08l-6.04,5.57c-1.51.91-5.2.83-3.59,3.32.09.14,1.48.45,2.15,1.19,1.41,1.53,1.98,4.39,4.8,4.18,1.8-.13,2.72-1.78,3.95-2.12,1.21-.33,5.13-.81,6.58-.92,3.32-.24,6.8.19,10.13.02-.31,1.78-1.05,2.63-.44,4.53,1.59,4.87,6.55,1.55,10.01.92,3.49-.63,7.1-.49,10.25-1,1.23-.2,7.52-1.75,8.23-2.14.44-.24,2.65-8.31,1.93-9.06-5.4.84-10.46,1.15-15.73,2.99-.82-.86,2.91-5.74-2.24-7.88-6.43-2.66-13.59-.68-19.89,1.18l-9.34-.8c.16-1.52,2.8-1.05,3.75-1.86.79-.68.59-1.88,1.15-2.63.56-.77,1.55-.58,1.82-.78.73-.54-2.18-3.14-1.48-3.7.23-.18,1.42-.07,1.91-.71,2.16-2.82-6.11-9.89-7.49-12.09-.59-.93-.64-2.25-1.29-3.21-7.33-10.95-16.29-16.57-25.88-24.71-3.15-2.67-1.79-3.1-6.98-5.02-1.2-.44-2.76-.28-3.03-1.32-1.39-.32-2.77-.71-4.13-1.17-.29-.07-.6-.18-.94-.33-.4-.14-.81-.28-1.2-.44-.12-.04-.16-.17-.18-.3-.65-.4-1.36-.87-2.12-1.43-.59-.37-1.19-.74-1.76-1.14-1.45-1.04-2.83-2.17-4.23-3.28-1.31-1.04-2.34-2.35-3.46-3.58-.06-.07-.09-.16-.11-.27-4.79-4.55-9.26-9.21-11.07-11.1-.75-.78-1.07-2.2-1.49-2.62-1.66-1.66-13.28-5.11-14.66-3.04-3.57,5.36,6.82,9.34,9.65,11.29,2.62,1.81,5.63,5,8.01,6.74,8.93,6.55,18.73,13.04,27.35,20.24,4.07,3.4,7.93,8.95,11.99,11.99,2.73,2.04,5.03,2.15,7.46,5.28,3,3.86,8.03,8.4,10.17,11.56,1.03,1.51,1.3,3.51,2.35,5.15.61.96,4.48,4.2,3.63,4.99-7.99-1.74-15.9.73-23.98,0,.66-5.3-1.43-4.16-4.72-5.28-.69-.24-.42-1.35-1-1.48-1.75-.39-4.61.19-6.66.02-7.53-.61-14.87-1.68-22.43-.71-2.26.29-4.58,1.86-6.84,2.15-5.82.76-20.33,1.19-26.2.81-3.55-.23-16.87-4.52-14.48,3.24.3.98,4.64,4.24.64,4.25-.21-1.25-1.1-2.79-1.94-3.69-7.39-7.96-16.16-17.35-22.39-26.32-1.33-1.92-1.93-5.46-2.86-6.52-2.02-2.31-6.5-4.66-8.79-7.32-1.71-1.99-7.73-12.57-8.39-12.98-.64-.39-1.81.11-2.69-.31-.26-.12-3.76-3.85-3.91-4.09-1.13-1.78-1.12-3.95-1.9-5.45-.56-1.06-1.8-1.62-2.64-3.36-1.49-3.07-.94-6.06-1.79-8.7-1.02-3.16-10.61-11.86-13.65-13.33-2.43-1.17-6.42-1.18-7.76-1.99-1.28-.78-5.5-8.46-6.74-10.12-1.72-2.29-4.87-4.89-6.32-6.79-.7-.91-3.05-5.77-2.67-6.7-.17-1.6-.1-1.67,1.5-1.5,0-2-3.52-1.14-4.54-1.83-.91-.62-2.01-5.46-2.92-6.07-.83-.57-2.51-.16-3.77-.72-.26-.12-3.48-2.62-3.78-2.96-1.64-1.8-2.22-5.35-3.64-7.18-.07.19-.15.37-.24.54t0,.01s-.01.04-.02.06c.07-.12.03-.04-.01.04-.01.04-.02.07-.03.11-.02.08-.03.17-.05.25-.02.09-.03.17-.05.26,0,.03-.01.06-.02.1-.1.74-.19,1.48-.35,2.21-.08.38-.2.75-.36,1.1-.06.13-.16.31-.27.44-.06.28-.11.56-.16.85-.15.75-.35,1.5-.66,2.2,1.24-.1,1.09.42,1.84,1.52,2.88,4.18,4.68,7.81,7.05,12.09,2.75.38,4.47,4.63,6.35,6.76,3.38,3.83,8.46,5.95,9.98,11.03.33,1.09-.05,2.6.16,3.19.22.62,7.19,9.23,8.28,10.05,4.43,3.35,7.34,2.75,10.61,8.16,1.8,2.97,3.11,5.7,5.09,8.77,6.49,10.04,15.78,21.42,23.24,31.1,6.71,8.71,14.09,16.18,20.56,25.16,1.38,1.92,2.49,4.49,4.16,6.33l-7.09-1.16c-5.96,1.22-12.25,2.08-5.64,8.27-2.71.58-6.79.73-4.88,4.52,1,1.99,5.14,2.14,6.44.4.64-.86.42-2.18,1.16-2.72,1.45-1.05,3.25.17,4.96-.07,1.31-.18,4.86-1.69,5.45-2.86.62-1.24-.25-4.57,1.48-3.76.69.32,2.71,2.68,3.26,3.48,1.71,2.5,3,6.56,4.59,8.9,2.43,3.57,6.89,7.55,9.04,11.2,1.96,3.32,3.28,9.54,6.33,11.65,1.05.73,2.74.91,3.46,1.79,1.14,1.4.32,3.97,1.82,5.68.89,1.01,2.6,1.28,3.74,2.26,2.54,2.17,4.95,4.95,7.11,7.5-5.36.72-8.43-2.38-12.57-4.29-14.46-6.68-30.21-9.9-45.16-14.8-5.05-1.66-9.86-5.9-14.04-7.69-7.37-3.17-10.04-1.02-17-7.71-5.33-5.12-17.69-4.95-24.4-8.23-.18-1.31,1.7-.71,2.61-.75,2.48-.09,7.17.51,8.67-2,.53-.89.57-3.01.77-3.19.34-.3,1.71.12,2.43-.03.75-.16.38-1.54.83-1.46.52.09,1.59.99,1.92.69,1.54-1.38-1.54-1.46-1.5-1.87.16-.7,2.24.06,1.5-1.49-.29-.62-4.2-2.31-5.03-2.48-3.8-.77-10.02,1.79-14.07,2.1-5.69.45-15.72-2.21-20.86-.62-.88.27-1.34,1.34-2.05,1.69-3.32,1.64-14.88,5.3-10.03,10.88,3.35,3.86,15.42,4.77,20.76,6.21,1.48.4,2.65,1.47,4.13,1.87,4.4,1.19,25.2,5.79,27,8.6.36.57.1,1.84.55,2.8.36.76,3.06,3.97,3.85,4.45,1.97,1.18,2.38.09,3.63.2,3.69.34,5.31,3.08,8.21,4.42,4.24,1.96,10.75,2.05,15.58,3.16,7.09,1.63,14.48,4.15,21.42,6.32,12.31,3.84,20.85,7.43,32.43,12.54,12.04,5.31,22.86,6.77,35.36,9.61,2.41.55,6.16,2.43,8.46,2.78,3.02.47,5.42-.87,8.23-.79,4.74.14,7.62-.74,11.24-.72,1.45,0,2.78.87,4.47.82,5.72-.15,14.57-4.47,21.07-5.23,4.48-.52,9.88.57,14.15-.09,2.47-.38,6.58-2.57,9.04-2.95,3.65-.56,8.3.51,11.94-.05,5.1-.79,10.5-2.23,15.83-2.91,3.17-.4,13.67-.32,15.13-2.48.95-3.74,2.12-6.31.35-10.14Z"
                    ></path>
                    <path
                        class="cls_2"
                        d="M259.85,347.38c1.06-.13,7.14,1.57,7.83,2.38,3.45,4.09-4.56,5.97-7.22,6.39-1.48.24-3.06-.17-4.47.03-6.4.88-6.46,1.54-12.77.06-3.31-.78-9.33-.22-6.72-5.31,2.04-3.97,9.03-.66,11.94-.76,4.16-.15,8.62-2.45,11.42-2.78Z"
                    ></path>
                    <path
                        class="cls_2"
                        d="M471.31,366.86c.97.63,2.29,4.62,2.58,4.91.35.35,1.68.24,2.5.86.6.45,3.1,4.35,3.23,5.09.98,5.33-5.91,4.59-9.1,3.79-3.15-.79-3.42-2.96-2.46-5.87.79-2.38,2.96-1.46,2.66-3.7-1.43-.24-2.29,1.11-3.53,1.38-3.23.7-11.35-1.95-7.54-5.71.22-.21,4.37-2.17,4.85-2.28,2.58-.57,2.74.43,4.58,1.16.68.27,1.69.02,2.22.37Z"
                    ></path>
                    <path
                        class="cls_2"
                        d="M340.11,381.1c1.58-.29,4.29-.43,5.82-.16,2.94.51,5.34,5.64,3.77,8.26-.59,1-5.53,2.15-6.78,2.14-.83,0-7.38-2.04-7.87-2.52-3.38-3.3,1.59-7.09,5.06-7.72Z"
                    ></path>
                    <path
                        class="cls_2"
                        d="M295.27,375.6c-.65.59-11.7-.8-12.68-1.77-1.23-1.22-.75-5.71.1-6.3,1.35-.94,12.39.2,14.17,1.79,1.61,1.43-.31,2.84-1.08,4.22-.37.65-.34,1.93-.5,2.08Z"
                    ></path>
                    <path
                        class="cls_2"
                        d="M289.33,379.46c.85.78-2.16,5.45-3.47,5.84-1.99.59-6.16.52-6.86-1.88-1.99-6.75,6.22-6.27,10.34-3.96Z"
                    ></path>
                    <path
                        class="cls_2"
                        d="M286.44,365.09c-.2-.13-1.65-3.28-3.45-2.9l-2.63,2.25c-1.87-5.57,7.94-7.88,10.15-3.76,1.39,2.61-3.15,5.01-4.06,4.41Z"
                    ></path>
                    <path
                        class="cls_2"
                        d="M442.79,390.79c6.87-1.35,3.31,9.45-2.32,5.8-2.7-1.75-.11-5.32,2.32-5.8Z"
                    ></path>
                    <circle class="cls_2" cx="302.09" cy="380.73" r="3.18"
                    ></circle>
                    <path
                        class="cls_2"
                        d="M334.9,368.77c-.61.62-3.67,1.29-4.28.87-.4-.28-1.19-4.34-.66-5.08.25-.34,2.86-1.78,3.62-1.3,1.63,1.02,2.84,3.97,1.32,5.51Z"
                    ></path>
                    <path
                        class="cls_2"
                        d="M143.2,160.58c-.2-.92-.21-5.42-.02-6.28.14-.58,1.11-.43,1.27-.63.13-.15-.45-2.09,1.74-3.22,5.48-2.83,6.52,6.67,7.66,9.59.75,1.91,1.85,3.98,2.83,5.79,1.43,2.65,2.41,3.36,3.75,5.25,1.81,2.56,3.39,4.43,5.25,6.75,1.42,1.77,5.39,7.4,6.34,9.78.76,1.89.66,3.46,1.77,5.72,1.35,2.75,5.69,6.15,5.4,8.83-.08.69-.76,1.08-.76,1.15-2.8-.53-5.47-1.54-8.24-2.25-4.35-8.59-3.31-6.01-9.74-11.24-.52-.42-1.41-1.88-2.24-2.66-.69-.65-1.89-.93-2.3-1.59-2.13-3.38,1.5-6.81-4.06-10.76-1.1-.78-2.57-.87-3.39-1.48-3.19-.09-1.8,5.28-2.96,7.16l3.71,5.58Z"
                    ></path>
                    <path
                        class="cls_2"
                        d="M218.15,172.57c.96.34,6.13,4.1,6.59,4.68.37.47.07,1.22.16,1.31,3.61,3.88,9.35,5.31,13.86,9,3.63,2.97,7.08,8.38,10.15,10.84,3.41,2.73,6.17,1.31,10.46,6.03,5.78,6.37,9.95,12.7,16.55,18.68,2.8,2.54,5.69,1.46,6.56,2.07.25.17.4,1.33,1.32,2.02,1.19.88,3.06,1.18,4.44,2.32,3.81,3.15,7.07,8.69,11.64,12.35,5.31,4.26,11.07,8.48,16.52,12.71,3.09,2.4,11.25,6.83,12.35,10.14,1.16,3.46-1.61,8.84-5.14,8.2-.92-.17-9.67-5.38-10.97-6.34s-2.21-2.37-3.44-3.31c-10.71-8.14-22.46-17.12-32.22-26.25-8.87-8.3-18.73-15.62-26.62-25.09-2.52-3.03-.13-1.97-4.25-3.98-6.07-2.96-7.99-7.69-12.97-11.79-2.57-2.12-5.48-3.04-7.89-4.85-3.03-2.28-5.97-6.4-8.98-9.01-1.22-1.06-2.86-1.39-4.17-2.58-1.53-1.4-2.13-3.56-3.71-4.91.45-.95,1.12-2.19,1.5-3,2.83-.05,5.54-.21,8.24.75Z"
                    ></path>
                </g>
                <g id="Head_And_Crown" data-name="Head And Crown">
                    <g id="Crown">
                        <path
                            class="cls_3"
                            d="M75.61,97.76c-.46-.35-9.21-1.17-11.31-1.82-1.9-.59-7.03-3.54-6.26-5.84,2.38-7.09,11.04-1.31,16.2-1.47-.35-3.41,3.39-9.34,7.05-8.2,1.37.43,3.27,6.66,3.87,8.14.37.92,1.51,1.69,1.71,2.83.82,4.67-6.15,11.37-10.38,8.05-.58-.45-.61-1.48-.88-1.69Z"
                        ></path>
                        <path
                            class="cls_3"
                            d="M104.22,39.9c.76.64,15.16-5.91,11.9,4.79-.66,2.16-9.39,2.43-11.42,1.97-.54-.12-.41-1.1-.71-1.29-.67-.43-1.63-.07-1.95-.27-.42-.27.2-3.44-.07-3.7-.5-.49-3.99,1.32-5.44-1.7-1.44-3.01,2.52-10.57,5.17-12.43,5.01-3.51,7.84-2.78,6.95,3.96-.43,3.25-3.15,5.72-4.44,8.67Z"
                        ></path>
                        <path
                            class="cls_3"
                            d="M90.73,52.65c1.25-4.76,9.49-9.81,9.8-1.87.18,4.6-3.83,9.53-8.66,8.61-1.23-.24-2.03-1.51-3.01-1.52-1.4-.01-2.81,2.54-5.23,2.31-1.4-.13-3.43-2.46-3.84-3.76-.44-1.4,2.81-8.55,3.92-8.91,5.4-1.74,4.3,2.89,7.01,5.14Z"
                        ></path>
                        <path
                            class="cls_3"
                            d="M92.89,108.21c.61.86-.39,5.4.17,5.83.36.28,1.65-.07,2.55.8,1.75,1.69,2.91,5.5.16,6.93-11.3,5.86-7.78-2.9-8.78-3.92-.31-.32-3.99.69-4.92-.7-.65-.97-.48-5.66-.18-7.02.6-2.77,3.95-4.74,6.6-3.96.45.13,4.25,1.84,4.39,2.03Z"
                        ></path>
                        <path
                            class="cls_3"
                            d="M92.5,137.62c-.4.4-.29,1.07-1.18,1.44-6.42,2.65-10.85-2.22-9.42-8.69,1.13-5.16,10.63-3.19,12.25,1.68,1.22,3.69.3,3.65-1.65,5.57Z"
                        ></path>
                        <path
                            class="cls_3"
                            d="M149.02,13.1c.42.41,1.55,3.15,1.51,3.81-.41,6.29-12.65,7.55-12.64-.61,0-4.79,1.6-6.47,6.43-5.61.4.07,4.5,2.21,4.71,2.41Z"
                        ></path>
                        <path
                            class="cls_3"
                            d="M46.32,88.02c5.58-.6,11.32,8.41,2.76,9.54-3.4.45-8.53.02-7.51-4.46.63-2.76,1.73-4.76,4.75-5.08Z"
                        ></path>
                        <path
                            class="cls_3"
                            d="M72.08,73.55c-1.02-1.48.77-6.49,2.19-7.76,5.99-5.38,13.17.74,6.36,6.36-1.77,1.46-7.09,3.52-8.54,1.4Z"
                        ></path>
                        <path
                            class="cls_3"
                            d="M121.24,20.55c5.47-.3,1.33,14.29-5.04,12.3-6.77-2.11.96-12.08,5.04-12.3Z"
                        ></path>
                        <path
                            class="cls_3"
                            d="M98.88,87.98c.18.13,1.48,3.44,1.57,4.05,1.74,11.3-10.97,9.01-8.82-.63.21-.93,1.26-2.74,2.09-3.16.91-.46,4.55-.69,5.16-.26Z"
                        ></path>
                        <path
                            class="cls_3"
                            d="M142.21,34.15c6.84,6.84-4.96,11.83-8.38,5.01-3.04-6.06,4.13-9.26,8.38-5.01Z"
                        ></path>
                        <path
                            class="cls_3"
                            d="M87.83,72.24c.54-.39,4.42-.24,5.17.25.69.45,1.71,3.19,1.91,4.11,1.23,5.82-6.58,10.18-8.51,3.25-.46-1.66.26-6.77,1.44-7.61Z"
                        ></path>
                        <path
                            class="cls_3"
                            d="M165.4.26c8.23-2.56,9.04,15.1.04,10.29-2.75-1.47-2.43-9.55-.04-10.29Z"
                        ></path>
                        <path
                            class="cls_3"
                            d="M220.23,57.31c4.32,4.32-5.25,12.33-8.89,7.76-1.03-1.29-1.18-4.15.04-5.32,1.39-1.33,7.08-4.2,8.84-2.44Z"
                        ></path>
                        <path
                            class="cls_3"
                            d="M67.21,116.45c3.24-.98,7.23-.54,7.75,3.32.64,4.8-2.35,4.57-6.38,4.12-5.23-.58-3.09-6.92-1.37-7.44Z"
                        ></path>
                        <path
                            class="cls_3"
                            d="M34.26,93.29c3.05-.33,8.86,4.92,4.76,6.96-1.31.66-7.89.79-8.67-.33-1.42-2.03,1.79-6.4,3.9-6.62Z"
                        ></path>
                        <path
                            class="cls_3"
                            d="M92.73,28.04c4.42-1.35,5.37,3.42,2.89,5.9-3.17,3.17-9,4.8-7.01-1.77.23-.75,3.37-3.9,4.12-4.13Z"
                        ></path>
                        <path
                            class="cls_3"
                            d="M197.16,30.16c-3.94.78-9.72-5.6-5.24-7.9,3.96-2.03,6.25,4.77,5.24,7.9Z"
                        ></path>
                    </g>
                    <g id="Head" filter="url(#starry-effect)">
                        <path
                            class="cls_1"
                            d="M204.65,86.38c1.67,3.93.6,7.52-4.11,7.55-2.85.02-3.65-.4-3.36-3.38.39-3.84,1.7-2.12,3.92-2.84,1.1-.35,1.91-1.86,3.54-1.34Z"
                        ></path>
                        <path
                            id="Face"
                            class="cls_1"
                            d="M175.23,45.39c.23.14.07,1.02.74,1.23,4.79,1.48,3.54,3.61,6.2,4.91,1.98.96,5.97-.24,7.85,2.64.45.7,1.64,6.2,1.73,7.31.11,1.28-.58,1.97-.63,2.74-.03.54,1.11.31,1.54.92,1.36,1.91,4.39,7.3,5.38,9.47.41.9,2.17,5.67,2.08,6.1-.65,3.26-6.1-.76-7.27-.97-1.81-.33-3.05.83-4.27.7-.54-.06-.32-1.48-.87-1.58-.48-.09-2.36-.07-2.48.11-.1.15-1.36,3.23-1.39,3.41-.24,1.29,1.29,5.06.56,7-.34.36-2.65-1.1-2.99-.75-1.4,1.45,1.51,2.51,1.54,2.68.25,1.41-.79,2.69-.79,4.06.47.46,4.69-1.06,5.52-1.59,1.37-.86,2-2.87,2.45-2.95,1.71-.31,3.92.54,5.52,1.16.55,2.26,2.75,4.53,3.4,6.34.43,1.21.26,2.58.7,3.8,1.01,2.84,5.78,9.52,3.44,12.4-2.44,2.99-4.52.79-6.27,1.18-.91.2-1.86,1.68-3.3,2-2.1.47-8.45,1.24-10.34.88-1.14-.22-1.73-1.19-2.43-1.37-1.7-.44-5.47,1.68-6.19,3.26-1.09,2.37,4.11-.32,4.92-.36,3.35-.16,7.13,2.29,11.93,1.46,1.33-.23,2.14-1.36,3.38-1.87,3.64-1.49,7.67-3.86,8.68,1.86.8,4.54-4.42,7.23-5.37,11.25-.3,1.28,1.06,4.89-.4,5.92-.51.36-5.22-.01-6.86.25-3.99.64-7.08,4.3-9.92,4.39-2.02.06-12.51-1.95-14.62-2.67-1.66-.57-6.1-2.62-7.77-3.47-1.77-.89-5.7-4.14-6.95-4.31-1.12-.15-2.54,2.03-4.41,2.15-3.45.23-7.62-2.83-7.89-6.36-.11-1.45.42-5.13,1.56-6.02.18-.14,4.01-1.7,4.25-1.73,1.13-.13,4.36,1.84,5.17,2.81.91,1.08,1.2,3.02,1.78,3.47,1.77,1.38,5.88-3.39,8.07-4.01,1.05-.3,2.15-.17,3.21-.16.29-1.76-1.61-2.09-2.1-3.55-.26-.76,0-2.21-.17-2.42-.14-.16-2.96,0-4.31-.55-1.1-.44-1.27-2.81-4.2-2.54-.54.05-.81,1.65-1.53,2.34-2.36,2.26-8,2.72-10.87,1.05-.63-.37-4.53-3.58-4.91-4.09-1.11-1.49-1.09-3.54-1.82-4.8-.12-.21-1.54-.72-3.15-2.95-1.27-1.76-7.72-9.09-7.41-10.59l7.48-3.82,6.02.44c.74-2.36-.97-4.05-1.34-5.79-.6-2.89-.96-9.52-2.39-11.73-.37-.58-1.58-.35-1.57-.9.05-2.61,2.61-7.82,4.59-9.65,3.66-3.37,9.6-3.26,11.93-5.31,2.47-2.17,3.64-8.74,5.63-10.86,1.07-1.14,3.05-.96,4.34-1.66,3.56-1.93,4.57-4.56,9.75-3.43.45.1,7.47,2.85,7.83,3.08ZM171.68,86.38s-.52.08-.79-.44c-.66-1.27-.79-4.33-2.67-4.67-.66-.12-2.94.68-4.41.68-1.76,0-3.9-.9-5.09-.69-.49.08-6.11,2.57-6.81,2.98-1.22.72-3.23,2.64-3.47,4.02-.28,1.6-.23,9.71.36,10.88,2.05,4.02,13.19,1.79,16.4-.11,3.74-2.22,3.2-5.03,4.93-7.08.69-.82,2.13-.98,2.25-1.14.13-.18-.73-3.13-.71-4.42.57.77.83,1.65,1.49,1.5.75-3.06-1.45-4.77-1.49-1.5ZM164.56,123.1c-.49,0-.49.75,0,.75s.49-.75,0-.75Z"
                        ></path>
                    </g>
                </g>
                <g id="Legs" filter="url(#starry-effect)">
                    <g id="Right_Leg" data-name="Right Leg">
                        <path
                            id="Lower_Right_Leg"
                            data-name="Lower Right Leg"
                            class="cls_1"
                            d="M150.46,560.28c-1.42.02-4.69.33-6.12.55-1.29.19-2.18,1.15-3.17,1.33-2.26.41-4.71.3-6.97.9.45-1.8.59-3.21.46-4.73-.03-.04-.07-.08-.11-.12-.1-.16-.21-.31-.32-.46-.18-.07-.36-.19-.44-.25-.51-.41-1.05-1.01-1.22-1.66-.26-.99-.73-1.78-1.24-2.47-.54-.73-1.29-1.54-1.99-2.25-.82-.84-1.66-1.67-2.47-2.52-.9-.01-1.81-.04-2.71-.07-2.02,1.71-6.26,5.5-6.49,5.88-2.08,3.34-4.09,9.94-6.41,13.83-1.74,2.92-4.39,5.25-6.2,8.04-3.34,5.14-5.36,9.3-10.65,13.33-3.99,3.04-10.4,5.01-14.23,8.25-2.97,2.52-5.59,9.6-8.55,13.18-3.88,4.68-8.45,8.98-13.41,12.07-2.8,1.75-5.28,6.9-5.85,7.27-.62.39-2.1-.02-3.1.26-2.4.68-5.89,7.81-8.08,9.93-2.64,2.57-6.19,3.42-8.9,5.34-2.59,1.84-5.59,5.98-9.02,6.77-1.23.28-2.53-.66-2.9-.38-1.31.99-1.67,2.85-5.13,3.53-3.51.69-7.06.89-10.38.94-4.24.07-5.22,8.18-4.78,11.53.62,4.75,3,7.14,6.73,9.75,2.42,1.7,5.88,2.93,8.17,4.57,1.18.85,8.6,7.01,8.93,7.56,1.87,3.11,3.42,8.35,5.33,11.16,1.72,2.53,6.3,6.04,8.66,8.58,1.93,2.09,4.36,6.26,6.3,7.94,2.17,1.88,6.13,2.15,8.56,4.18,1.66,1.38,2.68,3.75,4.59,5.15,3.58,2.64,6.8,3.3,5.49-2.49-.21-.92-1.11-1.74-1.25-2.55-.19-1.15.61-2.03.61-2.89,0-.52-4.79-7.63-5.57-8.59-1.65-2.03-9.11-6.64-9.29-7.2-.4-1.28.09-2.98-.12-4.37-.19-1.28-1.19-2.22-1.3-3.12-.3-2.46,1.74-4.94,2.05-6.66.23-1.27.23-4.66-.12-5.85-.55-1.89-3.27-2.44-3.97-3.52-.79-1.21-.98-4.64-1.73-6.51-.95-2.33-3.87-4.17-2.8-6.22,1.05-2,6.55-5.39,8.64-7.87,2.8-3.33,6.02-9.16,8.97-12.02,6.66-6.43,17.98-11.91,25.48-17.25,1.91-1.36,3.41-3.73,5.32-5.17,1.91-1.44,5.44-2.62,7.11-4.13,6.62-5.98,14.84-13.99,20.59-20.63,9.24-10.66,11.86-9.59,22.88-16.1,2.23-1.32,4.14-4.1,5.63-4.87,1.2-.62,2.79-.46,4.02-1.23,1.84-1.15,1.5-3.38,2.66-4.83,1.35-1.69,4.61-2.23,5.13-2.73.54-.52.89-5.01,1.69-6.17-2.27-1.69-3.74-4-7.01-3.95Z"
                        ></path>
                        <path
                            id="Upper_Right_Leg"
                            data-name="Upper Right Leg"
                            class="cls_1"
                            d="M175.41,332.57c.02-1.76,5.87-6.25,5.29-10.46-.21-1.5-1.45-1.79-1.88-2.67-.74-1.55-3.18-5.4-3.27-5.72-1.14-4.03,1.08-7.96-4.64-9.63-4.76-1.39-6.42,1.47-6.75,6.01-.2,2.62.84,4.51.84,6.75,0,3.16-1.24,7.9-1.46,11.24-.06.85.81,1.86.57,2.87-.35,1.47-2.77,1.72-3.52,3.28-1.17,2.43.1,5.82-.91,8.47-1.85.49-1.71-1.39-2.44-2.04-.84-.74-7.94-1.99-9.09-1.64-1.71.52-.81,2.69-1.36,3.53-.2.31-1.68.63-2.49,1.67-.93,1.19-.43,2.14-.8,2.99-.28.65-1.39,1.09-1.68,2-.72,2.25.27,4.36,1.37,6.23-2.71-.69-3.92,1.09-5.99,1.5.93-4-5.72-10.02-9.19-9.62-1.35.16-4.63,1.59-6.08,2.22-1.49.65-2.91,2.17-4.17,2.57-3.91,1.27-10.31.76-14.09,3.16-.58.37-4.26,3.73-4.71,4.27-4.13,4.97-5.02,12.5-4.49,18.76.47,5.51,4.08,11.6,5.09,17.39.6,3.48.09,4.22-1.76,6.9-1.64,2.37-4.07,5.6-5.45,8.04-.5.89-3.06,6.15-3.01,6.51.16,1.25,2.05,2.82,2.55,4.21,2.4,6.65,5.84,11.82,8.05,18.18,1.62,4.66,2.74,10.44,4.47,15.02.88,2.33,4.02,5.06,4.73,7.26,3.46,10.75,5.97,18.63,10.66,29.06,4.39,9.77,6.12,15.91,8.73,25.71.8,3.03,3.16,6.6,3.45,9.33.58,5.53-.31,9.41-1.34,14.45-.27,1.32-.67,6.3-.91,6.88.15.21.29.43.41.65,0,0,0,0,0,0,.02.05.05.1.07.16.06.12.13.23.19.36.02.03.04.09.06.14.02.03.04.07.04.08.04.08.09.16.13.23.1.17.2.35.31.52.06.09.12.19.18.28.01.02,0,.01.01.02,0,0,0,0,.01.01.45.67.94,1.32,1.43,1.96.94,1.25,1.85,2.51,2.6,3.88,2.04.47,6.52,2.64,7.62,2.7,1.32.07,3.12-1.12,4.54-1.11,3.9.01,2.5,1.54,8.4.09,1.28-.31,2.74.09,3.97-.53.87-.44,2.6-4.19,2.94-5.31,1.56-5.11.8-9.11-.74-14.04-.23-.73-1.17-.5-1.49-1.02-1.74-2.89.01-7.39-5.98-6.26-.39,1.88,2.23,2.29,2.12,3.98-.12,1.78-2.27,2.97-2.87,2.02-.1-.16-.01-2.04-.35-3.02-1.55-4.49-3.27-7.72-2.47-12.93.1-.64.36-2.25,1.31-2.04-.12,1.86.3,5.62,1.81,6.81.7.55,5.11,1.54,5.69,1.11,4.3-3.14,3.21-13.84-3.23-13.7-3.28.07-5.1,1.67-5.02,5.02-2.5-1.02-.92-4.21-2.05-6.56-.69-1.45-1.99-1.56-2.79-2.46-2.16-2.45-.52-6.67-1.49-9.75-1.18-3.78-7-6.85-7.22-10.06-.27-3.89,2.06-9.11,2.28-12.85.11-1.8-.7-3.28-.76-5.11-.05-1.75,0-3.54.04-5.29.02-.9-.56-2.79.74-2.62-.91,4.11.89,7.38,1.46,10.91,1.12,6.92,1.85,15.62,4.9,22.08.59,1.25,4.03,6.69,4.89,7.1,5.02,2.41,5.05-3.74,4.47-7.47-.24-1.56-1.29-2.57-1.5-4.49-1.24-11.39,1.3-21.43-1.81-33.42-.74-2.86-2.76-6.5-3.26-8.73-.46-2.08.73-15.51,1.51-17.67.7-1.96,3.6-2.33,2.73-5.28-.79-2.69-3.54-2.37-5.33-2.95-3.09-1.01-2.39-2.23-6.34.05-7.14,4.11-2.91,14.89-2.46,21.5.18,2.63-.09,5.98,0,8.99.07,2.37-.07,4.76-.02,7.13-3.66-1.08-1.65-1.38-1.47-4.12.27-4.11-1.68-13.12-6.03-7.36l-2.24,6.23c-.38-3.59-.29-8.09-.82-11.55-.43-2.81-2.99-7.52-3-9.03,0-1.29.76-2.83.84-4.48.13-2.76-1.16-7.31-.81-8.94.12-.56,1.24-.29,1.5-.99.7-1.92,1.13-6.86.78-8.84-.45-2.5-5.04-5.74-6.16-8.07-1.09-2.26-1.5-5.94-1.36-8.44.32-5.99,4.26-12.96,6.41-18.32.48-1.19.12-3.26,1.59-3.66,2.71-.74,4.05.54,6.68-2.31,2.7-2.93,1.54-7.18,1.85-7.53.1-.11,2.8-.07,2.92.09.27.37.08,1.66.77,2.58,2.09,2.78,7.47,2.93,10.59,2.25.95-.21,6.32-2.2,6.95-2.62.62-.41.66-1.4,1.27-1.86,2.81-2.11,6.18-2.77,8.57-6.45.81-1.25.86-2.9,1.34-3.54.55-.74,3.7-1.91,5.07-3.54,2.52-3.01,4.49-7.93,3.58-11.87-.42-1.84-2.88-3.63-2.86-5.41Z"
                        ></path>
                    </g>
                    <g id="Left_Leg" data-name="Left Leg">
                        <path
                            id="Upper_Left_Leg"
                            data-name="Upper Left Leg"
                            class="cls_1"
                            d="M337.03,532.92c-.21-1.02-.4-2.05-.62-3.08-.38-1.74-1.09-3.38-1.65-5.07-.62-1.86-1.17-3.81-1.4-5.78-.1-.21-.18-.43-.24-.64-.25-.9-.34-1.81-.37-2.72-2.35-5.02-4.32-10.37-7.84-14.73-2.7-3.35-3.12-2.64-6.28-4.21-.68-.34-7.63-10.99-8.44-12.55-.64-1.22-.44-2.62-1.3-3.94-1.33-2.03-6.68-5.34-7.17-6.32-.61-1.22-.13-3.43-.42-3.71-.29-.28-3.23-.22-4.49-1.88-1.12-1.47-.24-3.73-1.42-4.57-1.22-.88-4.46-1.5-6.27-2.72-8.88-5.95-18.81-18.72-26.68-26.53-5.9-5.85-6.08-4.29-10.19-12.3-3.67-7.15-22.66-14.44-29.83-18.14-3.21-1.66-5.27-4.87-8.56-6.43-5.8-2.76-15.56-2.04-19.45-5.66-.83-.77-1.05-2.37-2.51-3.12-.76-.39-5.56-1.94-6.28-1.9-.7.04-5.03,1.33-5.88,1.67-2.99,1.2-2.26,4.02-.2,5.84,1.48,1.31,11.19,5.2,13.87,6.37,6.28,2.73,11.17,5.71,17.1,8.38,2.76,1.24,5.89,1.8,8.35,2.9,2.7,1.21,4.25,3.99,6.55,5.45,2.02,1.28,4.24,1.29,5.91,2.33,2.92,1.82,4.34,6.49,6.69,9.04,1.71,1.86,4.65,3.47,6.14,5.45.48.64.23,1.87.96,2.42,1.1.83,4.51.6,6.44,1.82.63.4,9.27,9.79,10.09,10.89,5.46,7.3,5.53,6.7,12.35,12.38,7.38,6.14,12.06,14.4,18.8,20.93,2.73,2.65,8.7,5.64,9.29,9.45.4,2.62.27,5.23.96,8.03.35,1.44,1.66,2.6,1.31,4.31-2.27-1.85-4.46-3.79-6.79-5.57-1-.77-2.5-1.05-3.36-1.88-1.26-1.21-3.3-6.62-5.06-8.81-2.37-2.94-8.85-7.76-10.6-10.76-.79-1.35-.78-3.24-1.56-4.44-.82-1.27-2.38-1.4-2.52-1.61-.11-.16.55-1.07.46-1.65-.47-3.11-6.01-6.91-7.84-8.95-1.37-1.53-1.56-5.28-5.01-5.06-3.78.24-2.91,3.9-5.34,6-5.3-2.1-5.85-7.4-12.58-6.02-.3.06-1.66,2.44-2.77,2.77-.92,4.22.91,4.57,2.63,7.03,8.34,11.96,23.07,22.3,32.92,33.74,1.67,1.94,5.26,4.91,6.04,5.98.7.96.74,3.14,1.3,3.58.84.66,4.31,1.12,5.85,2.78,1.54,1.66-.49,3.44,4.49,2.62-1.96,4.64.94,2.6,3.74,4.13,1.22.67,1.39,2.44,2.27,2.98.88.55,2.19.32,3.4,1.09,2.49,1.59,8.95,7.68,9.89,10.35,1.4,3.98,2.52,12.84,6.95,15.54.87.53,2.45.26,3.21.87.19-.13.38-.23.59-.26.91-.14,1.65-.97,2.44-1.4.99-.53,2.03-.83,3.1-1.16.55-.17,1.08-.38,1.6-.61-.01-.04-.03-.08-.04-.12-.06-.19-.1-.37-.12-.57-.03-.16-.04-.33-.04-.49,0-.12.01-.23.06-.34.01-.08.06-.14.14-.17h.23c.12,0,.21.04.28.13,0,0,0,0,0,.01.02-.11.07-.21.17-.26.13-.06.25-.09.38-.1.19-.06.37-.12.55-.19.23-.09.45-.18.67-.29.12,0,.21.04.28.13,0,0,.01.01.02.02.05-.01.11-.02.16-.04.43-1.07,1.14-2.01,1.55-3.19.34-.99.41-3.07.49-3.52-.05-.27-.09-.53-.08-.78.02-1.02.21-2.02.45-3.01.03-.11.07-.17.11-.21Z"
                        ></path>
                        <path
                            id="Lower_Left_Leg"
                            data-name="Lower Left Leg"
                            class="cls_1"
                            d="M446.49,703.84c-7.44-4.92-11.31-10.73-21.86-8.88-1.52.27-3.95,3.04-6.36,3,.42-2.9-.33-4.58-1.65-6.98-2.73-4.97-9.21-10.31-11.28-14.95-2.04-4.57-1.9-12.89-3.92-18.56-4.64-12.99-13.02-24.72-19.29-36.92-1.53-2.97-1.47-6.57-2.45-9.55-3.67-11.24-13.4-18.52-18.19-29.02-3.22-7.06-6.36-16.17-8.78-23.44-.65-1.93-2.26-3.08-1.92-5.58.42-3.08,5.28-2.9,4.46-10.45-.62-5.81-3.68-8.87-5.35-13.39-.56-1.52-.46-2.98-.92-4.32-.26-.74-5.61-7.09-6.44-7.81-1.86-1.61-4.71-2.8-7.19-2.34.2.47.3,1.01.29,1.49-.08,2.9.55,5.73,1.09,8.57.58,1.7,1.27,3.34,1.91,5.02.8,2.08.71,4.23,1.02,6.4.02.16.03.42-.02.6.17.82.28,1.66.25,2.54,0,.22-.07.34-.15.41.01.13.03.25.03.38v.91c0,.16-.02.42-.19.51-.02.14-.03.28-.06.43,0,.05-.02.11-.02.16.05.85.06,1.54-.02,1.77-.25.75-2.55,2.03-4,2.55-.05.04-.09.09-.14.13-.12.11-.25.21-.39.29-.27.13-.52.25-.81.32-.25.06-.5.11-.76.13-.15.01-.31.02-.46,0-.08,0-.18-.03-.25-.07-.01,0-.02,0-.03-.02-.01-.01-.03-.04-.04-.06-1.3.62-2.59,1.26-3.98,1.67-1.06.32-2.13.6-3.05,1.23-.35.24-.7.48-1.05.69.34,2.81.6,9.61,1.16,11.63.78,2.79,6.92,13.66,8.78,16.71,3.8,6.23,9.44,13.93,13.81,19.92,6.84,9.37,15.16,17.37,21.7,26.27,2.44,3.32,6.29,7.73,8.02,11.47,1,2.17.35,4.47.73,6.76.43,2.55,3.12,10.19,4.13,13.11,2.71,7.88,8.93,19.46,10.54,26.93.9,4.19-.67,8.61,1.11,13.13.37.94,2.69,3.75,2.04,4.32-.09.07-1.38.21-2.03.58-2.06,1.17-5.59,6.13-5.17,8.44.54,2.96,4.81,10.23,7.95,8.63,1.77-.9,5.17-7.79,5.16-9.76,0-.29-1.49-7.07.83-4.13.41.52.58,3.34,1.17,4.46,1.04,2,5.96,4.18,8.11,3.83.69-.11,1.42-3.75,3.47-3.06.67,4.89,6.95,10.66,10.87,5.26.72,0,1.01,4.27,5.83,2.83.79-.24,1.38-1.3,2.4-1.34,2.41-.08,6.18,3.67,12.69,2.93,3.91-.44,5.98-2.1,6.48-6.26.88-7.37-3.24-6.53-7.79-9.53Z"
                        ></path>
                    </g>
                </g>
                <g id="Torso" filter="url(#starry-effect)">
                    <path
                        class="cls_1"
                        d="M126.12,148c.29-.36,1.97-.88,2.53-.92,5.72-.4,5.87,12.45.52,13.4-1.87.33-4.36-2.5-4.53-4.12-.08-.81,1.09-7.88,1.48-8.36Z"
                    ></path>
                    <path
                        class="cls_1"
                        d="M208.41,293.99c.77-4-4.1-5.18-.77-8.65,2.43-2.53,5.55.08,5.99,3.06.64,4.34-.9,5.7-5.21,5.59Z"
                    ></path>
                    <path
                        class="cls_1"
                        d="M156.69,165.82c1.4-.94,1.84-3.1,3.02-4.1,2.87-2.43,8.99-2.67,10.84,1.1.46.94.72,4.54.28,5.15-.19.26-5.17,2.59-5.85,2.76-1.52.38-2.99.43-4.54.33-1.34-1.89-2.32-2.6-3.75-5.25Z"
                    ></path>
                    <path
                        class="cls_1"
                        d="M196.21,164.12c-2.83,2.57-6.07,1.81-9.04.08-3.13-1.82-5.7-3.73-3.13-7.39,1.42-2.02,5.57.08,7.45,0,2.43-.11,3.85-2.54,6.72-.66,1.41.93,1.57,2.31,1.08,3.92-.07.24-2.83,3.82-3.08,4.04Z"
                    ></path>
                    <path
                        class="cls_1"
                        d="M157.16,144.26c2.89-.32,6.94,3.05,10.02,3.2,6.43,1.72,7.09,10,.21,11.48-3.16.68-9.59-3.08-11.05-5.89-.47-.9-.35-2.02-.81-2.94s-1.88-1.32-1.89-2.65c0-1.33,2.28-3.06,3.52-3.2Z"
                    ></path>
                    <path
                        class="cls_1"
                        d="M144.94,280.73c-1.61,1.94-2.37,2.4-3.94,3.94-2.98,2.93-3.49,7.19-8.67,3.32-5.82-4.34-3.22-9.62,1.91-13.08,2.77-1.87,5.58-.68,8.61-1.84,2.74.24,4.51,2.91,4.15,5.55-.25,1.78-1.5,1.43-2.06,2.1Z"
                    ></path>
                    <path
                        class="cls_1"
                        d="M257.12,256.89c-.24-1.35-4.41-4.85-5.57-4.86-.93,0-2.54,1.22-3.31.64-.19-.14-.29-1.18-.88-1.72-3.25-2.99-6.52-6.57-10.46-8.31-5.99-2.65-14.33-6.07-20.43-7.3-.89-.18-5.06-1.15-5.06-1.69,5.36-4.21,11.2-.33,16.67,1.33,4.13,1.25,8,1.58,11.78,3.96.99.62,1.81,2.23,2.8,2.5,1.21.33,3.69-1.15,5.78-.68.6.13.33,1.46.9,1.56.55.1,4.56-.69,4.74-.85.17-.15.21-4.28.04-4.42-.16-.13-2.58-.02-4.02-.86-1.63-.94-1.89-2.6-3.06-3.68-2.6-2.41-8.25-2.8-11.44-4.3-.9-.42-8.05-5.81-5.07-6.17,1.54-.19,5.28-.25,6.74,0,2.35.41,3.85,4.33,8.15,2.91,1.08-.36,2.03-5.57,1.89-6.22-.27-1.3-7.56-2.78-9.47-4.01-1.87-1.21-2.16-3.32-4.49-3.79-2.06-.42-3.32.67-4.91.49-8.02-.9-16.59-3.36-24.32-5.71-1.07-.32-2.38.01-3.45-.29-1.68-.48-1.69-2.45-2.13-2.74-.63-.42-1.99-.04-2.61-.07-.04.62-.2,1.23-.46,1.42,0,.68-.15,1.43-.43,1.7,0,.55-.22,1.16-.44,1.61-.07.14-.13.28-.2.42-.02.04-.02.04-.03.06-.02.05-.05.11-.07.16-.12.29-.23.58-.33.87-.01.03-.02.06-.03.09,0,.02-.01.04-.03.08-.05.17-.1.33-.15.5-.09.31-.17.63-.26.95,0,.02,0,.01,0,.03-.01.05-.03.11-.04.16-.04.17-.08.34-.11.51-.07.33-.13.67-.19,1.01-.02.12-.04.25-.06.37,0,.02,0,.03,0,.05,0,.07-.02.14-.03.21-.04.31-.08.62-.11.94-.06.61-.27,1.48-.73,1.93-.05.05-.09.07-.12.09-.03.09-.06.18-.09.26,1.42,1.82,1.99,5.38,3.64,7.18.31.34,3.52,2.85,3.78,2.96,1.27.56,2.94.16,3.77.72.91.62,2.01,5.45,2.92,6.07,1.02.7,4.53-.16,4.54,1.83,0,1.03-1.44,1.35-1.5,1.5-.38.93,1.97,5.78,2.67,6.7,1.46,1.91,4.6,4.5,6.32,6.79,3.47,1.28,8.93.82,12.04,1.83,2.81.91,6.81,5.04,10.42,6.07,1.58.45,5.77.18,5.96.42.3.37-.03,1.77,1.15,2.97,3.95,4,10.55,2.26,9.41-4.16Z"
                    ></path>
                    <path
                        class="cls_1"
                        d="M225.51,200.06c-.06-.19-2.08-3.26-2.25-3.37-.57-.38-2.43-.06-3.65-.48-1.31-.45-6.35-2.79-6.71-3.79,1.78-.75,2.64-1.95,2.85-3.93.57-5.48-5.81-7.47-10.37-7.03-.05.31-.13.62-.24.9-.09.23-.25.64-.45.8-.25.2-.48.42-.7.65-.09.1-.18.2-.27.31-.02.03-.15.19-.04.04-.03.05-.07.09-.1.14-.16.22-.3.45-.44.69-.03.05-.05.1-.08.15-.01.02-.02.04-.03.06-.04.49-.19,1.1-.41,1.52-.01.13-.03.26-.06.4.17.23.09,1.16-.16,1.89.1.29.24.59.55.75.48.25,6.56,1.61,4.71,3.02-.21.16-3.95,2.03-4.27,2.12-.91.23-3.08.02-3.21.15-.33.34-1.03,6.41.5,7.53.66.48,7.56,2.95,8.11,2.95h16.86c-.18-1.72.37-3.88-.13-5.49Z"
                    ></path>
                    <path
                        class="cls_1"
                        d="M188.91,170.69c-.38.19-3.18,3-3.37,3.4-.49,1.02-.05,2.47-.82,3.04-3.54,2.64-6.29-2.21-8.55-4.19-.14-.32,4.33-1.32,4.53-2.35,1.41-7.34-10.73-7.53-6.78,1.23l-4.51.37-3.74,5.63c1.42,1.77,5.39,7.4,6.34,9.78.76,1.89.66,3.46,1.77,5.72,1.35,2.75,5.69,6.15,5.4,8.83-.08.69-.76,1.08-.76,1.15-.13,1.52.3,3.27-.13,4.74-.31,1.04-1.78,1.82-2.46,2.78-.67.95-1.12,2.86-1.88,3.37-1.31.86-6.42.18-8.57.42-3.48.39-20.72,4.14-22.9,5.58-1.43.95-4.61,3.37-6.01,4.48-.51.41-4.29,5.05-4.39,5.39-.16.56.23,4.33.51,5.86.41-.25.87-.44,1.34-.51.38-.7,2.44-.95,3.27-1.38,0,0,0,0,0,0,.1-.06.19-.1.24-.13,2.69-1.35,5.68-2.02,8.64-2.41,1.39-.18,2.71-.5,4.07-.8,1.23-.27,2.51-.42,3.68-.88.03-.01.09-.04.16-.06.71-1.53,2.56-2.37,4.16-2.87,6.79-2.11,14.52-.96,21.24-2.74.64-.17,1.16-.42,1.61-.66.04-.32.13-.63.17-.75.42-1.31,1.05-2.54,1.47-3.84.42-1.31.74-2.65,1.09-3.98.69-2.62,1.29-5.25,1.83-7.9,0-.06-.03-.11-.03-.17,0-.17.01-.33.04-.49.02-.19.06-.38.12-.57.02-.08.05-.16.08-.24,0-.15,0-.31.01-.4.03-.36.13-.79.27-1.12.3-.71.64-1.39,1.02-2.06.04-.07.08-.15.12-.22.1-.32.2-.65.32-.97,0,0,0,0,0,0,.07-.48.21-1.01.42-1.38,0,0,0,0,0-.01.12-.43.24-.86.39-1.28.04-.11.09-.21.13-.31.05-.25.11-.47.14-.56.11-.38.21-.76.31-1.13v-.22h.06c.37-1.38.71-2.76,1.09-4.14.2-.95.46-1.94.83-2.88.53-1.79,1.04-3.57,1.53-5.37,1.28-4.65,2.51-9.31,3.99-13.9-2.11.7-6.12.45-7.5,1.12Z"
                    ></path>
                    <path
                        class="cls_1"
                        d="M243.23,294.76c-.8-1.66-3.58-4.17-4.09-5.08-.34-.62-1.32-3.56-.01-3.94-1.99-3.07-3.29-5.8-5.09-8.77-3.27-5.4-6.19-4.81-10.61-8.16-1.09-.82-8.05-9.44-8.28-10.05-3.72-1.49-7.02,2.3-9.36,2.32-1.88.01-3.04-1.43-4.56-1.58-1.63-.16-2.89.78-4.37.73-1.94-.07-4.63-1.28-6.81-1.47-3.02-.26-6.87.48-9.66.05l-.07.08c-.06.15-.14.29-.2.38-2.88,4.51-6.29,8.95-10.53,12.26-.02.02-.07.05-.12.09.34.81-2.55,3.98-4.19,4.92-.05.2-.11.39-.18.57-.24.6-.49,1.19-.73,1.79-.05.28-.13.56-.22.82-.1.27-.22.54-.34.8,0,0,0,.01,0,.02-.08.28-.19.55-.33.8-.1.96-1.06,2.45-.76,2.85.13.17,3.44,1.94,3.7,2.02,2.11.68,10.95-3.45,13.29-4.79,2.99-1.71,10.33-8.33,12.71-9.02,1.45-.42,8.19-1.67,9.62-1.67,2.83,0,4.27.91,6.79,1.49,1.07.25,2.41-.15,3.57.18,2.1.59,2.8,4.7,3.91,6.58,1.76,2.98,4.93,5.31,6.95,8.04,2.96,4,7.51,12.59,8.36,17.13.17.93-.16,1.98,0,2.87.1.54,1.03.49,1.5,1.01,1.7,1.9,1.79,3.42,5.5,2.33,2.36-.69,1.53-2.97,2.21-4.19.13-.23,1.01-.2,1.29-.69.53-.94,2.19-3.71,2.28-4.39.13-.97-.74-5.39-1.17-6.31Z"
                    ></path>
                    <path
                        class="cls_1"
                        d="M149.2,186.06c-2.36.74-4.43.17-6.7.02-.03.61-.22,1.33-.57,1.79-1.1,1.43-1.84,3.04-2.46,4.68-.34.92-.56,1.58-.84,2.55-.13.44-.25.88-.37,1.33-.03.1-.05.2-.08.3,1.64.41,3.52,2.1,5.38,2.1,3.44,0,6.69-2.64,9.02-3.02,1.44-.24,3.07.25,4.37.02.34-.06,3.4-4.98,3.48-6.03-.52-.42-1.41-1.88-2.24-2.66-.69-.65-1.89-.93-2.3-1.59-2.13-3.38,1.5-6.81-4.06-10.76-1.1-.78-2.57-.87-3.39-1.48-3.19-.09-1.8,5.28-2.96,7.16l3.71,5.58Z"
                    ></path>
                    <path
                        class="cls_1"
                        d="M198.66,237.77c.87,1.58,1.56,3.47,2.35,4.77,1.6,2.63,6.94,6.84,6.7,9.84-.23,2.88-2.49,1.25-4.16,1.12-3.47-.27-6.91-.6-10.37-.87-4.89-2.62-3-8.46,1.72-8.88,1.08-.59-3.87-7.04,3.77-5.98Z"
                    ></path>
                    <path
                        class="cls_1"
                        d="M170.18,201.05c.15.29.05.91.38,1.47,1.32,2.27,5.59,3.85.04,5.33-1.47-4.45-3.45,1.52-4.31,2.06-1.07.67-3.02-.76-3.99,2.38-.67-.2-.45-1.42-1.08-1.92-.81-.63-9.39,1.19-10.96,1.87-2.81,1.21-5.94,4.46-9.13,5.86-3.51,1.54-7.73,2.14-11.43,3.18,1.18-2.42.25-5.6.88-7.74.11-.38,4.78-5.93,5.13-6.12,1.43-.77,4.25-1.18,6.16-2.09,10.78-5.12,16.13-7.4,28.31-4.3Z"
                    ></path>
                </g>
                <g
                    id="Left_Arm_Drumstick"
                    filter="url(#starry-effect)"
                    data-name="Left Arm + Drumstick"
                >
                    <path
                        id="Lower_Left_Arm"
                        data-name="Lower Left Arm"
                        class="cls_1"
                        d="M369.29,233.24c-4.03-.57-8.06-1.68-11.92-2.78-1.94-.55-3.8-1.37-5.69-2.08-1.51-.57-3.15-1.17-4.8-1.22.49,1.46,0,3.1.35,4.83.4,2.02,1.76,4.13,2.04,6.21.27,2.04.37,10.95-.32,12.32-.38.75-1.63,1.4-2.21,2.28-4.45,6.7.15,9.42-.38,15.35-.23,2.62-2.36,5.94-3.03,8.6.42.42.74,1.83,1.49,2.62,1.81,1.89,6.28,6.55,11.07,11.1-.06-.37.08-.96.29-1.47-.15-.66.38-2.18.89-2.51-.1-.14-.15-.27-.15-.37,0-.32,2.2-2.11,2.19-4.49,0-2.64-2.26-5.63-2.29-6.75-.01-.45,2.22-7.69,2.62-8.63.93-2.22,4.04-5.63,4.57-7.48.3-1.07.44-5.05.63-5.3.41-.55,1.57-.34,2.15-1.63,1.98-4.38.83-9.15,1.33-13.62.07-.62.77-3.59,1.18-4.97Z"
                    ></path>
                    <path
                        id="Upper_Left_Arm"
                        data-name="Upper Left Arm"
                        class="cls_1"
                        d="M378.51,221.82c-.25-.69-1.33-.41-1.47-1.03-.19-.83.16-1.89-.11-2.76-.5-1.66-8.34-4.83-10.38-5.36-4.02-1.05-7.52-.27-11.46-1.29-2.02-.52-3.04-2.49-4.04-2.75-.96-.25-2.14.62-3.42.52-2.82-.23-10.45-2.79-13.52-3.76-2.85-.9-5.74-2.5-8.78-2.84-.32-1.04,3.2-.82,1.5-2.24-.35-.29-3.68-1.21-4.67-1.71-12.8-6.4-25.43-8.47-38.57-16.14-4.94-2.88-16.49-11.14-18.18-16.3-1.85-5.68-.16-7.52-6.11-11.16-.7-.43-1.84-.29-2.09-.49-.58-.46,1.42-5.16-3.83-4.44,1.34-2,.19-3.7-1.89-2.31l-.35-2.17-1.49,1.49v-2.25c-2.92-.51-1.83.81-2.29,1.46-1.02,1.43-2.11-1.92-2.33-2.07-.83-.58-3.36.16-4.66-.12-.59-.12-.32-1.39-.93-1.53-3.58-.83-4.96,1.12-7.73,1.94-1.09.32-3.41.16-3.71.41-.16.13-.66,2.71-1.58,3.86-.93,1.16-3.19,2.83-4.26,4.22-2.69-1.59-4.64.14-5.98.7-.07,1.75-.45,3.44-.97,5.11-.19.62-.39,1.24-.57,1.86.01.14.01.27.01.38,0,.37-.05.74-.14,1.11,0-.03.01-.05.02-.08,0,.05-.02.09-.02.14,0,.06-.01.12-.02.17,0,.17,0,.33,0,.5,0,.09,0,.18,0,.27h0c.02.42.04.84.05,1.25.34.92.57,2.26,1.04,2.9.98,1.35,3.44,1.67,2.58,5.26.96.34,6.13,4.1,6.59,4.68.37.47.07,1.22.16,1.31,3.68,1.6,7.69.28,11.31.42,4.39.17,8.15,2.61,12.67,1.82-.13,2.12-.03,5.55,2.63,6.01,4.44.77,4.38-6.29,5.23-6,.68.23,2,1.31,2.63,1.87-.17.87-1.84.1-2.25.37-1.77,1.16,5.57,4.9,6.53,5.1,1.86.38,3.57-.19,5.45.55,3.5,1.36,10.36,7.97,14.49,10.25,7.35,4.05,17.37,5.63,24.29,9.44,1.77.97,2.58,2.61,4.01,3.49,5.35,3.28,10,4.19,15.68,6.06,2.86.94,5.51,3.17,8.22,3.77,1.69.37,3.64.04,4.84.42.98.31.92,1.58,1.39,1.96.71.56,2.37.45,3.65,1.4,3.2.31,6.31,1.96,9.28,3,2.26.79,4.68,1.25,7.01,1.84,2.55.64,5.11,1.23,7.74,1.46.66.06,1.37.48,1.84.91.07.06.21.21.31.37,1,.17,2.18.17,3.24-.49,1.18-.74.76-2.74,1.42-3.61.47-.62,2.3-.68,2.73-2.19.22-.79-.39-4.09-.7-4.95Z"
                    ></path>
                    <g
                        id="Left_Hand_Drumstick"
                        data-name="Left Hand + Drumstick"
                    >
                        <path
                            id="Left_Hand"
                            data-name="Left Hand"
                            class="cls_1"
                            d="M346.31,291.74c1.07.8,1.23,6.17-2.25,3.74-1.52,4.68,6.45,4.04,5.97,7.79-.17,1.31-1.33,5.14-1.84,6.46-1.71,4.43-3.52,8.87-5.43,13.31-.6,1.4-.49,4.1-1.7,5.05-1.02.79-5.31,2.47-6.38,1.12-2.75-3.45.45-7.62.34-10.8-.03-.8-.52-2.1-.72-3.09-.19-.93-.46-2.47-1.49-1.1-.51.68-1.18,6.6-1.33,8.08-.12,1.15.57,2.12.27,3.19-.9,3.14-4.65,4.24-7.56,4.48-8.67.72-4.87-3.87-5.63-10.12-.08-.69-1.44-.43-1.49-.37-.26.31-3.34,6.64-3.57,7.31-.65,1.89-.38,5.7-1.99,7-1.88,1.51-8.02,1.32-10.18-.07l-.76,6.75c-3.98-1.03-9.95-.22-8.11-6.25.46-1.52,3.14-2.49,3.48-5.56.18-1.65-.74-5.03-2.86-4.69-.13.72.21,2.79,0,3-.2.19-4.89.66-5.44.6-3.93-.39-5.56-4.46-3.48-7.66,1.45-2.23,6.32-1.5,8.17.31.64-5.27,1.64-10.67,4.91-14.95,5.85-7.66,17.39-8.52,25.62-12.61,2.41-.75,4.64.53,6.7,1.61.23.12.24.91.79,1.18,1.11.54,4.49.68,4.64.86.4.45-.41,2.03.43,2.17.69-1.35,3.23-1.42,3.8-2.2,1.2-1.67-1.26-5.37,2.94-5.34.44,0,3.97.67,4.14.8ZM336.57,310.48c-1.24-1.04-2.4,2.11-2.25,2.24,1.24,1.04,2.4-2.11,2.25-2.24Z"
                        ></path>
                        <path
                            class="cls_1"
                            d="M358.22,318.64c-3.1-.1-11.31,2.29-11.21-2.54.15-8.14,15-5.8,11.21,2.54Z"
                        ></path>
                        <g id="Drumstick">
                            <path
                                class="cls_1"
                                d="M238.64,327.15c2.04,2.28-.34,6.98-2.71,8.26-.76.41-3.44,1.24-4.39,1.44-.8.16-1.62-.56-2.44-.35-1.43.37-3.42,2.71-4.47,2.92-1.61.33-4.14-2.6-4.04.54-1.93-1.9-5.54-2.34-4.72-5.8.72-3.03,2.7-2.13,4.54-2.9,4.41-1.84,8.73-3.96,13.04-6.04.91-.1,4.66,1.35,5.18,1.93Z"
                            ></path>
                            <path
                                class="cls_1"
                                d="M249.44,323.34c2.71-.32,5.87,2.64,5.47,5.47-.23,1.64-4.48,5.8-6.35,5.66s-6.39-3.93-6.43-5.62c-.07-2.82,4.95-5.24,7.31-5.51Z"
                            ></path>
                            <path
                                class="cls_1"
                                d="M259.57,327.92c2.86-2.53,9.08.31,8.82,3.86-.15,1.97-1.94,4.33-4.07,4.17-3.85-.28-8.32-4.87-4.75-8.04Z"
                            ></path>
                        </g>
                    </g>
                </g>
                <g
                    id="Right_Arm_Drumstick"
                    data-name="Right Arm + Drumstick"
                    filter="url(#starry-effect)"
                >
                    <path
                        id="Upper_Right_Arm"
                        data-name="Upper Right Arm"
                        class="cls_1"
                        d="M75.75,303.23s.04-.08.06-.11c7.07-10.86,13.69-22.06,18.98-33.9l-.32.04c.2-.15.37-.32.53-.49.05-.1.09-.2.14-.3.12-.27.3-.54.49-.55,1.31-2.3.7-5.44,1.91-7.21.96-1.41,2.76-1.12,3.74-2.25.22-.25,3.04-5.16,3.3-5.7,1.22-2.54.67-6.95,2.31-9.68.92-1.54,2.43-1.73,3.1-2.52,3.01-3.54,4.35-6.73,1.72-11.01,1.67-.02,4.52-1.01,5.61-2.27,1.39-1.61.78-3.62,1.53-5.22.81-1.74,3.96-2.97,5.22-4.53,1.19-1.47,2.07-4.87,2.8-5.81.43-.56,2.37-.63,3.37-1.18.6-.33,5.98-7.18,6.1-7.73.29-1.33-2.65-3.01-.27-5.51.36-.38.76-.57,1.17-.63.45-1.73.95-3.45,1.58-5.12.44-1.16.94-2.32,1.53-3.43,0-.09-.01-.17,0-.26.04-.39.15-.76.27-1.12.06-.17.13-.33.21-.49.03-.06.05-.11.08-.17.1-.19.21-.38.33-.56.02-.02.03-.05.05-.07,1.08-2.5-1.52-5.63-1.07-7.18.36-1.25,2.39-.66,2.22-1.94l-2.24-1.12c.66-1.18,2.88-1.03,3.41-1.85.54-.83.05-2.3.5-2.9.29-.38,1.26-.06,1.33-.13.2-.24.86-5.51.64-6.23-.39-1.29-2.6-2.19-2.89-3.51-2.44,1.14-6.4,1.76-8.53,3.09-1.58.99-1.76,2.53-2.74,3.25-.26.19-3.98,1.77-4.22,1.8-1.04.14-1.71-1.44-2.74-1.3-2.26.31-6.56,3.54-7.64,3.68-2.26.3-4.43-1.44-6.74-1.57-1.42-.08-5.27.48-6.57.95-2.53.91-1.86,3.71-2.97,4.9-.53.57-1.82.57-2.43,1.68-2.46,4.51-2.08,8.47-2.7,13.05-.81,6.05-1.91,11.19-2.22,17.27-.18,3.48.98,10.71-1.14,13.14-7.83,9-6.23,17.82-10.25,27.19-.66,1.54-2.25,2.26-3.16,3.59-3.25,4.75-2.26,7.5-3.39,12.2-.17.7-1.33.7-1.85,1.26-2.33,2.55.22,4.55-.53,6.98-.33,1.08-1.84,1.44-2.14,3.13-.75,4.2,1.35,5.89,1.5,8.28.09,1.31-.81,2.83-.82,4.46-.02,2.45,1.48,4.81,1.54,6.82.11,3.4-1.72,3.68,1.19,7.76.3.42.62.78.94,1.12.05-.03.1-.06.15-.08Z"
                    ></path>
                    <g
                        id="Lower_Right_Arm_Drumstick"
                        data-name="Lower Right Arm + Drumstick"
                    >
                        <path
                            id="Lower_Right_Arm"
                            data-name="Lower Right Arm"
                            class="cls_1"
                            d="M174.79,239.86c-.74-1.12,1.24-2.76-3.11-2.09.05-3.76,1.81-2.47,3.73-3.37.66-.31,2.46-2.17,2.27-2.98-.11-.47-3.34-2.59-4.08-2.6-.86-.02-1.94.68-3.02.73-4.26.19-5.94,1.17-8.96,1.53-1.51.18-3.21.04-4.88-.04-.37.17-.78.28-1.18.31-.23.05-.45.08-.68.08s-.28-.07-.27-.17c-.11.04-.23.09-.35.13-.16.05-.32.1-.47.15-.04.01-.07.02-.11.04,0,0,0,0,0,0-.33.13-.68.24-1.03.27-.06,0-.13,0-.21,0-2.19.22-4.24,1-6.37,1.49-2.27.52-4.49,1.09-6.73,1.75-.04.01-.14.04-.26.07-.17.05-.34.09-.51.13-.44.28-.95.47-1.47.54-.09.09-.18.16-.23.19-.25.17-.54.3-.83.41-.04.02-.07.04-.1.06,0,0-.01,0-.01.01-.13.08-.26.16-.4.23,0,0-.01,0-.01.01-.13.08-.26.16-.4.23,0,0,0,0-.01,0-.01,0-.02.01-.03.02,0,0,0,0,0,0-.05.03-.1.05-.16.08-.05.13-.21.3-.34.42.04.15-.2.4-.38.56-.62,1.65-4.57,3.7-5.25,4.58-.61.78-.48,1.89-.9,2.45-1.71,2.3-10.16,6.26-13.13,6.77-.85.15-1.99-.51-2.44-.22-.27.17-3.72,4.69-3.89,5.09-.87,1.97-.67,4.16-1.76,6.48-1.15,2.43-3.02,3.09-4.19,5.14l-5.75.65c-.08.48-.32,1.01-.46,1.31-2.85,6.2-5.7,12.42-8.94,18.44-1.59,2.95-3.24,5.89-5.09,8.68-1.63,2.45-3.34,4.85-4.82,7.39,3.59,2,8.1.74,12.31-.84,6.8-2.54,14.33-7.92,20.61-11.62,2.71-1.6,6.05-2.45,8.37-5.12,1.37-1.58,1.87-4.68,3.38-6.36,1.3-1.44,6.23-3.26,5.93-5.1-.18-1.12-1.8-2.12-1.33-3.74.27-.93,3.03-3.5,4.02-3.52,1.41-.03,3.58,2.04,5.99,2.28,2.62.26,5.17-.95,6.75-.8,1.27.12,1.89,1.65,3.69,1.54,3.55-.22,9.2-2.13,13.56-2.16.81,0,1.58.2,2.34.48.51,0,1.03.07,1.53.21.12.03.17.11.18.21,1.02-.03,2.04-.07,3.04.1.11-.39.64-.92.78-1.07.66-.7,1.42-1.27,2.25-1.75.53-.3,1.11-.54,1.6-.9.16-.11.18-.14.37-.39.22-.29.42-.6.62-.92.38-.61.74-1.24,1.12-1.85,1.39-2.23,3.04-4.2,4.94-5.98-.22-.61-.44-1.29-.8-1.71-3.22-3.81-11.03-1.38-15.34-4.53l4.89-2.22c3.62-.13,11.52,1.59,13.47-2.27,2.58-5.09-6.58-6.24-7.01-6.9Z"
                        ></path>
                        <g id="Right_Drumstick" data-name="Right Drumstick">
                            <path
                                class="cls_1"
                                d="M207.64,151.19c-.26.18-3.62,4.29-4.07,4.92-1.08,1.52-3.14,4.81-4.06,6.44-.73,1.29-1.05,3.21-1.38,4.65,0,.06,0,.11-.02.17-.73,4.99-2.43,9.74-3.61,14.63-1.16,4.81-1.87,9.79-3.35,14.51-.68,2.16-1.54,4.24-2.35,6.35-.87,2.26-1.47,4.55-1.98,6.91-.98,4.55-1.95,9.09-3.96,13.31.16.46.17,1.48.07,3.45,3.29-.17,4.58,1.02,5.74-1.59,0,0,0,0,0-.01-.02-.34.07-.74.16-1.06.1-.34.23-.68.42-.98,0,0,.01-.02.02-.04,0,0,0,0,0,0,.01-.03.02-.07.03-.1.01-.07.03-.14.04-.21.03-.17.07-.35.1-.52.14-.76.32-1.51.59-2.24-.5-.26-1.32-.55-1.77-1.2-1.85-2.64-.46-5.09,2.72-3.49.09.05.18.11.27.17.11-.26.24-.51.38-.76.04-.07.13-.19.24-.27.32-2.61.93-5.24,1.98-7.66.03-.26.08-.56.16-.83.01-.11.01-.23.03-.34,0-.03.01-.06.02-.08,0-.04,0-.08,0-.11.02-.19.05-.37.1-.55.04-.2.1-.39.17-.57.02-.07.06-.13.09-.19,0,0,0-.01,0-.02.05-.12.1-.25.16-.37.08-.28.19-.5.32-.6,0-.84.23-1.81.64-1.81.01,0,.02,0,.03,0,.15-1.83.69-4.85.88-5.63.15-.59,1.5-4.54,1.63-4.75.2-.31.95-.35,1.23-.66.67-.75.74-1.43,1.26-1.72,0-.53.16-1.1.41-1.59,0-.02.02-.05.03-.06.02-.04.05-.12.07-.17.01-.02.14-.25.15-.27,0,0,0,0,0,0,0,0,0,0,0,0,0,0,0-.01.01-.02.02-.03.03-.06.05-.09.03-.06.08-.09.12-.14.01-.02.03-.05.04-.07.02-.04.05-.08.05-.1.14-.25.26-.51.39-.76.24-.5.47-1,.73-1.49.59-1.14,1.3-2.21,2.31-3.03.03-.02.05-.03.08-.05.92-1.76,3.11-5.14,3.37-5.69.45-.95,1.12-2.19,1.5-3,.17-.36-.02-1.43.35-2.24.51-1.13,1.6-4.03,2.16-5.01,0-.05,0-.1.02-.15.05-.27.13-.64.29-.87.07-.1.14-.21.2-.31.03-.05.06-.1.09-.15.09-.19.17-.39.24-.59.24-1.79.53-3.57.91-5.33-.03-.26-.04-.54,0-.77.07-.57.17-1.13.26-1.69.02-.11.04-.21.05-.32,0,0,0-.01,0-.02,0-.08.02-.16.02-.24,0-.02,0-.05,0-.07,0-.21.02-.41.04-.61-1.61-1.18-3.89-4.3-6.91-2.24Z"
                            ></path>
                            <path
                                class="cls_1"
                                d="M162.07,277.76c.04-.35.11-.73.25-1.07.02-.35.08-.77.21-1.16-.87-.88-1.71-2-2.45-2.55-3.36-2.49-5.33-2.4-7.9,1.12-1.86,2.55-3.77,6.07-5.34,8.9-.84,1.51-2,1.49-2.19,3.84-.34,4.28,1.99,7.72,6.44,7.83,3.45.09,5.85-6.6,7.38-9.03.63-1,1.36-1.93,2.1-2.87.05-.29.12-.6.22-.87.08-.34.2-.66.35-.9.06-.23.14-.45.23-.65.04-.25.11-.52.19-.76.07-.34.17-.68.3-.96.04-.29.12-.6.22-.88Z"
                            ></path>
                            <path
                                class="cls_1"
                                d="M190.02,219.79c.09-.24.19-.47.3-.7.06-.43.12-.87.19-1.3.15-.87.38-1.72.73-2.52-.09-.06-.17-.12-.26-.17-3.18-1.6-4.57.85-2.72,3.49.45.64,1.27.94,1.77,1.2Z"
                            ></path>
                        </g>
                    </g>
                </g>
            </g>
        </g>
    </svg>